<?xml version="1.0" encoding="utf-8"?>
<!-- Generator: Adobe Illustrator 24.0.1, SVG Export Plug-In . SVG Version: 6.00 Build 0)  -->
<svg version="1.1" id="Calque_1" xmlns="http://www.w3.org/2000/svg" xmlns:xlink="http://www.w3.org/1999/xlink" x="0px" y="0px"
	 viewBox="0 0 1920 1080" style="enable-background:new 0 0 1920 1080;" xml:space="preserve">
<style type="text/css">
	.st0{fill:#303030;}
</style>
<g>
	<path class="st0" d="M1919.53,1016.12l-53.57-7.07c-53.57-7.61-160.71-20.96-267.85-0.05c-107.15,21.71-214.3,77.68-321.44,63.93
		c-107.14-14.28-214.26-99.62-321.4-135.23c-107.14-35.08-214.28-21.77-321.43,7.14c-107.15,28.37-214.3,71.01-321.44,63.93
		c-107.14-7.62-214.27-63.62-267.84-92.56L-9,887.79l0.02-127.97l53.57,0.01c53.57,0.01,160.71,0.03,267.85,0.05
		c107.14,0.02,214.28,0.04,321.43,0.06c107.14,0.02,214.28,0.04,321.43,0.06c107.14,0.02,214.28,0.04,321.43,0.06
		c107.14,0.02,214.28,0.04,321.43,0.06c107.14,0.02,214.28,0.04,267.85,0.05l53.57,0.01L1919.53,1016.12z"/>
</g>
<g>
	<path class="st0" d="M1931,259h-53.89c-53.89,0-161.67,0-269.44,0c-107.78,0-215.56,0-323.33,0c-107.78,0-215.56,0-323.33,0
		s-215.56,0-323.33,0s-215.56,0-323.33,0s-215.56,0-269.44,0H-9V131l53.89-7.07c53.89-7.6,161.67-20.93,269.44-49.87
		c107.78-28.4,215.56-71.07,323.33-64c107.78,7.6,215.56,63.6,323.33,113.87c107.78,49.73,215.56,92.4,323.33,64
		C1392.11,159,1499.89,60.33,1607.67,38.6c107.78-20.93,215.56,35.07,269.44,64L1931,131V259z"/>
</g>
<rect x="-86" y="207" class="st0" width="2131" height="649"/>
</svg>
