<svg width="127" height="32" viewBox="0 0 127 32" fill="none" xmlns="http://www.w3.org/2000/svg">
<path d="M40.458 25.1974L42.0376 21.5286C43.7446 22.8025 46.0121 23.4649 48.2542 23.4649C49.9102 23.4649 50.9548 22.828 50.9548 21.8598C50.9293 19.1592 41.044 21.2738 40.9676 14.4968C40.9421 11.0573 43.9994 8.40759 48.3306 8.40759C50.9039 8.40759 53.4771 9.04454 55.3115 10.4968L53.8338 14.242C52.1523 13.1719 50.0631 12.4076 48.0758 12.4076C46.7255 12.4076 45.8338 13.0445 45.8338 13.8598C45.8593 16.5095 55.8211 15.0573 55.923 21.5286C55.923 25.0445 52.9421 27.5159 48.6618 27.5159C45.5281 27.5159 42.6491 26.777 40.458 25.1974Z" fill="black"/>
<path d="M101.07 20.2038C100.28 21.5796 98.8022 22.5222 97.0952 22.5222C94.5729 22.5222 92.5346 20.484 92.5346 17.9617C92.5346 15.4394 94.5729 13.4012 97.0952 13.4012C98.8022 13.4012 100.28 14.3439 101.07 15.7197L105.426 13.2993C103.796 10.3949 100.662 8.40759 97.0952 8.40759C91.8213 8.40759 87.541 12.6878 87.541 17.9617C87.541 23.2356 91.8213 27.5159 97.0952 27.5159C100.688 27.5159 103.796 25.5541 105.426 22.6242L101.07 20.2038Z" fill="black"/>
<path d="M63.5665 0.484009H58.1143V27.1592H63.5665V0.484009Z" fill="black"/>
<path d="M107.566 0.484009V27.1592H113.019V19.1592L119.49 27.1592H126.471L118.242 17.656L125.859 8.78974H119.184L113.019 16.1528V0.484009H107.566Z" fill="black"/>
<path d="M79.7705 20.2547C78.9807 21.5541 77.3501 22.5222 75.5157 22.5222C72.9934 22.5222 70.9552 20.484 70.9552 17.9617C70.9552 15.4394 72.9934 13.4012 75.5157 13.4012C77.3501 13.4012 78.9807 14.4203 79.7705 15.7452V20.2547ZM79.7705 8.78976V10.9554C78.8787 9.45218 76.6622 8.40759 74.3437 8.40759C69.5539 8.40759 65.7832 12.6369 65.7832 17.9363C65.7832 23.2356 69.5539 27.5159 74.3437 27.5159C76.6622 27.5159 78.8787 26.4713 79.7705 24.9681V27.1337H85.2227V8.78976H79.7705Z" fill="black"/>
<path d="M6.7515 20.2293C6.7515 22.0891 5.24832 23.5923 3.38845 23.5923C1.52858 23.5923 0.0253906 22.0891 0.0253906 20.2293C0.0253906 18.3694 1.52858 16.8662 3.38845 16.8662H6.7515V20.2293Z" fill="#E01E5A"/>
<path d="M8.43262 20.2293C8.43262 18.3694 9.9358 16.8662 11.7957 16.8662C13.6555 16.8662 15.1587 18.3694 15.1587 20.2293V28.6369C15.1587 30.4968 13.6555 32 11.7957 32C9.9358 32 8.43262 30.4968 8.43262 28.6369V20.2293Z" fill="#E01E5A"/>
<path d="M11.7957 6.72612C9.9358 6.72612 8.43262 5.22293 8.43262 3.36306C8.43262 1.50319 9.9358 0 11.7957 0C13.6555 0 15.1587 1.50319 15.1587 3.36306V6.72612H11.7957Z" fill="#36C5F0"/>
<path d="M11.7962 8.43311C13.6561 8.43311 15.1592 9.93629 15.1592 11.7962C15.1592 13.656 13.6561 15.1592 11.7962 15.1592H3.36306C1.50318 15.1592 0 13.656 0 11.7962C0 9.93629 1.50318 8.43311 3.36306 8.43311H11.7962Z" fill="#36C5F0"/>
<path d="M25.2744 11.7962C25.2744 9.93629 26.7776 8.43311 28.6375 8.43311C30.4973 8.43311 32.0005 9.93629 32.0005 11.7962C32.0005 13.656 30.4973 15.1592 28.6375 15.1592H25.2744V11.7962Z" fill="#2EB67D"/>
<path d="M23.5923 11.7962C23.5923 13.6561 22.0891 15.1592 20.2293 15.1592C18.3694 15.1592 16.8662 13.6561 16.8662 11.7962V3.36306C16.8662 1.50319 18.3694 0 20.2293 0C22.0891 0 23.5923 1.50319 23.5923 3.36306V11.7962Z" fill="#2EB67D"/>
<path d="M20.2293 25.2739C22.0891 25.2739 23.5923 26.7771 23.5923 28.637C23.5923 30.4969 22.0891 32 20.2293 32C18.3694 32 16.8662 30.4969 16.8662 28.637V25.2739H20.2293Z" fill="#ECB22E"/>
<path d="M20.2293 23.5923C18.3694 23.5923 16.8662 22.0891 16.8662 20.2293C16.8662 18.3694 18.3694 16.8662 20.2293 16.8662H28.6624C30.5223 16.8662 32.0254 18.3694 32.0254 20.2293C32.0254 22.0891 30.5223 23.5923 28.6624 23.5923H20.2293Z" fill="#ECB22E"/>
</svg>
